# xmcd CD database file
# Copyright (C) 1997 Ti Kan
# 
# Track frame offsets:
#     150
#     16507
#     31560
#     48402
#     61640
#     74627
#     87992
#     97382
#     110882
#     119682
#     136965
#     147200
#     159512
#     179245
#     190867
#     204840
#     217485
# 
# Disc length: 3069 seconds
# 
# Revision: 1
# Processed by: cddbd v1.4b41PL1 Copyright (c) Steve Scherf et al.
# Submitted via: DiscPlay 4.0.4
# 
DISCID=020bfb11
DTITLE=Howlin' Wolf - Howlin' Wolf London Sessions
DYEAR=1900
DGENRE=
TTITLE0=Rockin' Daddy
TTITLE1=I Ain't Superstitious
TTITLE2=Sittin' On Top Of The World
TTITLE3=Worried About My Baby
TTITLE4=What A Woman
TTITLE5=Poor Boy
TTITLE6=Built For Comfort
TTITLE7=Who's Been Talking
TTITLE8=Little Red Rooster (Rehearsal)
TTITLE9=Little Red Rooster
TTITLE10=Do The Do
TTITLE11=Highway 49
TTITLE12=Wang-dang-doodle
TTITLE13=Howlin' For My Baby
TTITLE14=Smokestack Lightnin'
TTITLE15=Back Door Man
TTITLE16=Killing Floor
EXTD=
EXTT0=
EXTT1=
EXTT2=
EXTT3=
EXTT4=
EXTT5=
EXTT6=
EXTT7=
EXTT8=
EXTT9=
EXTT10=
EXTT11=
EXTT12=
EXTT13=
EXTT14=
EXTT15=
EXTT16=
PLAYORDER=
